<svg xmlns="http://www.w3.org/2000/svg" fill='currentColor' fillRule="evenodd" viewBox="0 0 22 22">
  <path d="M21.927 4a4 4 0 00-4-4h-14a4 4 0 00-4 4v14a4 4 0 004 4h14a4 4 0 004-4V4Zm-6.92 11.4a1.103 1.103 0 110 2.206 1.103 1.103 0 010-2.206ZM8.414 15l.707-.707a.999.999 0 10-1.414-1.414l-.707.707-.707-.707a.999.999 0 10-1.414 1.414l.707.707-.707.707a.999.999 0 101.414 1.414l.707-.707.707.707a.999.999 0 101.414-1.414L8.414 15Zm6.59-2.6a1.104 1.104 0 11-.002 2.208 1.104 1.104 0 11.002-2.208ZM8 6v-1a1 1 0 00-2 0v1H5a1 1 0 000 2h1v1a1 1 0 002 0v-1h1a1 1 0 000-2h-1Zm5 2h4a1 1 0 000-2h-4a1 1 0 000 2Z"/>
</svg>