<svg xmlns="http://www.w3.org/2000/svg" viewBox="0 0 300 300">
  <path fill="#fff" stroke="#fff" strokeWidth="8px" d="M255.5 25c-.3.5-2.3 1.4-4.4 2-2.2.6-6.6 2.8-9.9 5-11.7 7.8-13.7 19.6-4.2 24.5 6.9 3.6 11 .8 7.8-5.3-2.1-4.1-2.4-10.9-.6-14.7 1.6-3.6 9.5-7.5 15.1-7.5 9.1 0 18.7 6.7 20.8 14.5 3.1 11.5-3.2 24.9-18.8 39.6-7.5 7.1-20.3 17.7-23.5 19.5-3.7 2.2-8.8 7.8-8.8 9.7s.5 2 11.8 1.3c17.7-1.1 33.6-1.1 44.8-.2 12.4 1.1 14.7.3 14.2-5.1-.2-2.9-.9-3.9-3.8-5.4-5.7-3.1-23.7-2.5-41 1.3-8.1 1.8-10.8 2-11.4 1-.5-.8 6-6 25.2-20.4 7-5.3 18.9-18.8 22.2-25.3 2.9-5.6 3.2-7.2 3.2-14.5-.1-7.8-.3-8.4-3.5-12.3-5.8-7.1-10-8.7-23.2-8.7-6.3 0-11.7.4-12 1zm-121.2 84.5c-5.4 2.7-8.9 5.4-14 10.9-6.4 6.9-14.8 18.3-18.3 25.1-7 13.3-10.5 18.5-12.4 18.5-.7 0-2.6-4.4-4.5-9.8-6.6-19.4-14.3-37.7-17.6-41.4-1.3-1.5-4-3.4-6-4.2-5.9-2.5-7.3-2.4-28 3.2-4.9 1.3-10.5 2.7-12.3 3.2-4.4 1.1-6.2 2.8-6.2 5.7 0 2.4.2 2.5 4.2 1.9 2.4-.4 7.9-.9 12.3-1.2 7.8-.6 8.1-.5 12.9 2.8 5.5 3.6 9.6 10.5 13.6 22.1 1.1 3.4 2.4 7.1 2.9 8.2 1.4 3.2 3.7 9.3 7.1 19 1.7 4.9 3.8 10.5 4.6 12.3 1.6 3.7 1.8 8.8.5 9.7-.6.3-2 2.7-3.3 5.2-3.7 7.6-17.4 25.4-23.5 30.6-8.8 7.6-12.5 9.1-21.8 9.1-4.4 0-9.7-.6-11.7-1.3-5-1.7-6.9-.9-10.1 4-2.9 4.4-3.5 9.9-1.4 12.6 6.4 8.2 10.6 10 20.8 8.9 6.9-.7 11.5-2.9 18.5-8.8 10.2-8.7 18.6-19.4 29.6-37.6 3.4-5.6 6.7-10.7 7.4-11.3.9-.7 1.8-.1 3.3 2.4 1.2 1.9 2.1 3.9 2.1 4.4 0 1 2.2 6.1 4.2 9.7.6 1.1 2.1 4.8 3.3 8.2 3.8 10.6 13.1 24.4 19.5 29 4.3 3.1 4.9 3.3 14 3.3 8.1.1 10.7-.3 18.5-3 4.9-1.7 9.5-3.5 10-3.9.6-.4 2.1-1.1 3.5-1.5 4.7-1.5 10-5.5 10-7.5 0-2.6-2.5-3.6-5.3-2.2-1.2.6-4.6 1.6-7.5 2.1-22.1 4.5-34.4-6-48.1-40.9-1.8-4.7-3.7-9.3-4.3-10.3-1.9-3.8-5.8-15.5-5.8-17.6 0-2.4 4.4-11.6 8.4-17.4 1.4-2.1 2.6-4 2.6-4.3 0-.9 4.4-7 9-12.3 5.1-6 13.7-12.2 19.2-13.8 5.1-1.5 12.3 0 17.6 3.7 5.1 3.6 5.2 3.6 7.6.9 2.9-3.4 4.7-8.7 4.8-13.9.2-6.1-2.7-10.2-9.3-13.5-6.9-3.5-11.8-3.3-20.6 1z"/>
</svg>