<svg xmlns="http://www.w3.org/2000/svg" fill="currentColor" stroke="#fff" strokeWidth="2px" viewBox="0 0 40 30">
  <path d="M31.9375 0c-.0375.0625-.2875.175-.55.25-.275.075-.825.35-1.2375.625-1.4625.975-1.7125 2.45-.525 3.0625.8625.45 1.375.1.975-.6625-.2625-.5125-.3-1.3625-.075-1.8375.2-.45 1.1875-.9375 1.8875-.9375 1.1375 0 2.3375.8375 2.6 1.8125.3875 1.4375-.4 3.1125-2.35 4.95-.9375.8875-2.5375 2.2125-2.9375 2.4375-.4625.275-1.1.975-1.1 1.2125s.0625.25 1.475.1625c2.2125-.1375 4.2-.1375 5.6-.025 1.55.1375 1.8375.0375 1.775-.6375-.025-.3625-.1125-.4875-.475-.675-.7125-.3875-2.9625-.3125-5.125.1625-1.0125.225-1.35.25-1.425.125-.0625-.1.75-.75 3.15-2.55.875-.6625 2.3625-2.35 2.775-3.1625.3625-.7.4-.9.4-1.8125-.0125-.975-.0375-1.05-.4375-1.5375-.725-.8875-1.25-1.0875-2.9-1.0875-.7875 0-1.4625.05-1.5.125zm-15.15 10.5625c-.675.3375-1.1125.675-1.75 1.3625-.8.8625-1.85 2.2875-2.2875 3.1375-.875 1.6625-1.3125 2.3125-1.55 2.3125-.0875 0-.325-.55-.5625-1.225-.825-2.425-1.7875-4.7125-2.2-5.175-.1625-.1875-.5-.425-.75-.525-.7375-.3125-.9125-.3-3.5.4-.6125.1625-1.3125.3375-1.5375.4-.55.1375-.775.35-.775.7125 0 .3.025.3125.525.2375.3-.05.9875-.1125 1.5375-.15.975-.075 1.0125-.0625 1.6125.35.6875.45 1.2 1.3125 1.7 2.7625.1375.425.3.8875.3625 1.025.175.4.4625 1.1625.8875 2.375.2125.6125.475 1.3125.575 1.5375.2.4625.225 1.1.0625 1.2125-.075.0375-.25.3375-.4125.65-.4625.95-2.175 3.175-2.9375 3.825-1.1.95-1.5625 1.1375-2.725 1.1375-.55 0-1.2125-.075-1.4625-.1625-.625-.2125-.8625-.1125-1.2625.5-.3625.55-.4375 1.2375-.175 1.575.8 1.025 1.325 1.25 2.6 1.1125.8625-.0875 1.4375-.3625 2.3125-1.1 1.275-1.0875 2.325-2.425 3.7-4.7.425-.7.8375-1.3375.925-1.4125.1125-.0875.225-.0125.4125.3.15.2375.2625.4875.2625.55 0 .125.275.7625.525 1.2125.075.1375.2625.6.4125 1.025.475 1.325 1.6375 3.05 2.4375 3.625.5375.3875.6125.4125 1.75.4125 1.0125.0125 1.3375-.0375 2.3125-.375.6125-.2125 1.1875-.4375 1.25-.4875.075-.05.2625-.1375.4375-.1875.5875-.1875 1.25-.6875 1.25-.9375 0-.325-.3125-.45-.6625-.275-.15.075-.575.2-.9375.2625-2.7625.5625-4.3-.75-6.0125-5.1125-.225-.5875-.4625-1.1625-.5375-1.2875-.2375-.475-.725-1.9375-.725-2.2 0-.3.55-1.45 1.05-2.175.175-.2625.325-.5.325-.5375 0-.1125.55-.875 1.125-1.5375.6375-.75 1.7125-1.525 2.4-1.725.6375-.1875 1.5375 0 2.2.4625.6375.45.65.45.95.1125.3625-.425.5875-1.0875.6-1.7375.025-.7625-.3375-1.275-1.1625-1.6875-.8625-.4375-1.475-.4125-2.575.125z"/>
</svg>