<svg xmlns="http://www.w3.org/2000/svg" xml:space="preserve" style="enable-background:new 0 0 511.999 511.999" viewBox="0 0 511.999 511.999">
	<path d="M415.18 0H96.819c-27.449 0-49.78 22.332-49.78 49.78v412.438c0 27.449 22.332 49.78 49.78 49.78H415.18c27.449 0 49.78-22.332 49.78-49.78V49.78C464.961 22.332 442.629 0 415.18 0z" style="fill:#005a95"/>
	<path d="M255.999 0H96.819c-27.449 0-49.78 22.332-49.78 49.78v412.438c0 27.449 22.332 49.78 49.78 49.78h159.18V0z" style="fill:#31aaef"/>
	<path d="M394.467 165.97c0 10.659-8.642 19.301-19.301 19.301H136.834c-10.659 0-19.301-8.642-19.301-19.301v-60.422c0-10.659 8.642-19.301 19.301-19.301h238.332c10.659 0 19.301 8.642 19.301 19.301v60.422z" style="fill:#005a95"/>
	<path d="M394.467 146.948c0 10.659-8.642 19.301-19.301 19.301H136.834c-10.659 0-19.301-8.642-19.301-19.301V86.526c0-10.659 8.642-19.301 19.301-19.301h238.332c10.659 0 19.301 8.642 19.301 19.301v60.422z" style="fill:#9cd8ff"/>
	<path d="M301.595 267.557a7.788 7.788 0 0 1-7.788 7.788h-73.379a7.788 7.788 0 0 1-7.788-7.788v-41.015a7.788 7.788 0 0 1 7.788-7.788h73.38a7.788 7.788 0 0 1 7.788 7.788v41.015h-.001z" style="fill:#66acd3"/>
	<path d="M180 267.557a7.788 7.788 0 0 1-7.788 7.788h-73.38a7.788 7.788 0 0 1-7.788-7.788v-41.015a7.788 7.788 0 0 1 7.788-7.788h73.38a7.788 7.788 0 0 1 7.788 7.788v41.015z" style="fill:#9cd8ff"/>
	<path d="M420.954 267.557a7.788 7.788 0 0 1-7.788 7.788h-73.38a7.788 7.788 0 0 1-7.788-7.788v-41.015a7.788 7.788 0 0 1 7.788-7.788h73.38a7.788 7.788 0 0 1 7.788 7.788v41.015zM301.595 355.584a7.788 7.788 0 0 1-7.788 7.788h-73.379a7.788 7.788 0 0 1-7.788-7.788v-41.015a7.788 7.788 0 0 1 7.788-7.788h73.38a7.788 7.788 0 0 1 7.788 7.788v41.015h-.001z" style="fill:#66acd3"/>
	<path d="M180 355.584a7.788 7.788 0 0 1-7.788 7.788h-73.38a7.788 7.788 0 0 1-7.788-7.788v-41.015a7.788 7.788 0 0 1 7.788-7.788h73.38a7.788 7.788 0 0 1 7.788 7.788v41.015z" style="fill:#9cd8ff"/>
	<path d="M301.595 442.865a7.788 7.788 0 0 1-7.788 7.788h-73.379a7.788 7.788 0 0 1-7.788-7.788V401.85a7.788 7.788 0 0 1 7.788-7.788h73.38a7.788 7.788 0 0 1 7.788 7.788v41.015h-.001z" style="fill:#66acd3"/>
	<path d="M180 442.865a7.788 7.788 0 0 1-7.788 7.788h-73.38a7.788 7.788 0 0 1-7.788-7.788V401.85a7.788 7.788 0 0 1 7.788-7.788h73.38A7.788 7.788 0 0 1 180 401.85v41.015z" style="fill:#9cd8ff"/>
	<path d="M413.167 306.78h-73.38a7.787 7.787 0 0 0-7.787 7.788v128.296a7.787 7.787 0 0 0 7.787 7.787h73.38a7.787 7.787 0 0 0 7.787-7.787V314.57a7.788 7.788 0 0 0-7.787-7.79z" style="fill:#ff0029"/>
	<path d="M256 67.224H136.834c-10.659 0-19.301 8.642-19.301 19.301v60.422c0 10.659 8.642 19.301 19.301 19.301H256V67.224z" style="fill:#fff"/>
	<path d="M257.119 218.754h-36.69a7.788 7.788 0 0 0-7.788 7.787v41.015a7.788 7.788 0 0 0 7.788 7.788h36.689v-56.59h.001zM257.119 306.78h-36.69a7.788 7.788 0 0 0-7.788 7.787v41.015a7.788 7.788 0 0 0 7.788 7.788h36.689v-56.59h.001zM257.119 394.061h-36.69a7.788 7.788 0 0 0-7.788 7.787v41.015a7.788 7.788 0 0 0 7.788 7.788h36.689v-56.59h.001z" style="fill:#9cd8ff"/>
</svg>

